<svg width="175" height="175" viewBox="0 0 175 175" fill="none" xmlns="http://www.w3.org/2000/svg">
<g clip-path="url(#clip0)">
<path d="M16.2369 157.299L-0.00706482 0.00921631L174.991 0.0692497L158.883 157.179L87.3553 174.949L16.2369 157.299ZM145.711 148.714L159.293 13.9972H87.6283L88.1743 162.582L145.711 148.714ZM80.9396 33.7485H63.5354L63.3306 114.375L29.546 106.27L29.6142 124.7L80.9396 136.887V33.7485Z" fill="#D4B830"/>
<path opacity="0.986" d="M29.6143 124.7L29.546 106.27C29.546 106.27 51.1136 111.613 63.3307 114.374L63.5354 33.8083H80.9396V136.887L29.6143 124.7Z" fill="#EBEBEB" fill-opacity="0.9216"/>
<path d="M87.6282 13.937H159.293L145.711 148.654L87.6282 162.522V13.937ZM142.025 126.081L146.734 75.7122L111.926 79.1342V52.2388L149.055 52.1187L150.556 33.7483L94.5217 33.9884L95.2724 100.867L129.125 95.7636L128.648 110.652L94.5217 118.637L94.8629 136.887L142.025 126.081Z" fill="#FDD83C"/>
</g>
<defs>
<clipPath id="clip0">
<rect width="175" height="175" rx="20" fill="white"/>
</clipPath>
</defs>
</svg>
